<mxfile host="app.diagrams.net" modified="2024-03-05T14:43:25.674Z" agent="Mozilla/5.0 (Windows NT 10.0; Win64; x64) AppleWebKit/537.36 (KHTML, like Gecko) Chrome/122.0.0.0 Safari/537.36" etag="ztDJAV_3PvQynekwyH1E" version="24.0.1" type="device">
  <diagram name="Page-1" id="tLk_r5W_Nmx2NsVv3eAb">
    <mxGraphModel dx="2284" dy="1880" grid="1" gridSize="10" guides="1" tooltips="1" connect="1" arrows="1" fold="1" page="1" pageScale="1" pageWidth="850" pageHeight="1100" math="0" shadow="0">
      <root>
        <mxCell id="0" />
        <mxCell id="1" parent="0" />
        <mxCell id="E6Ye3oewYgmc-_yJtXfk-1" value="Student" style="shape=umlActor;verticalLabelPosition=bottom;verticalAlign=top;html=1;outlineConnect=0;" parent="1" vertex="1">
          <mxGeometry x="-200" y="390" width="30" height="60" as="geometry" />
        </mxCell>
        <mxCell id="E6Ye3oewYgmc-_yJtXfk-2" value="Admin" style="shape=umlActor;verticalLabelPosition=bottom;verticalAlign=top;html=1;outlineConnect=0;" parent="1" vertex="1">
          <mxGeometry x="1660" y="400" width="30" height="60" as="geometry" />
        </mxCell>
        <mxCell id="E6Ye3oewYgmc-_yJtXfk-3" value="Login" style="ellipse;whiteSpace=wrap;html=1;" parent="1" vertex="1">
          <mxGeometry x="670" y="360" width="90" height="50" as="geometry" />
        </mxCell>
        <mxCell id="E6Ye3oewYgmc-_yJtXfk-4" value="Include" style="endArrow=open;endSize=12;dashed=1;html=1;rounded=0;entryX=0.5;entryY=0;entryDx=0;entryDy=0;exitX=1;exitY=0.5;exitDx=0;exitDy=0;" parent="1" source="E6Ye3oewYgmc-_yJtXfk-5" target="E6Ye3oewYgmc-_yJtXfk-3" edge="1">
          <mxGeometry width="160" relative="1" as="geometry">
            <mxPoint x="320" y="180" as="sourcePoint" />
            <mxPoint x="320" y="400" as="targetPoint" />
            <Array as="points">
              <mxPoint x="715" y="160" />
            </Array>
          </mxGeometry>
        </mxCell>
        <mxCell id="E6Ye3oewYgmc-_yJtXfk-5" value="Quản lý thông tin cá nhân" style="ellipse;whiteSpace=wrap;html=1;" parent="1" vertex="1">
          <mxGeometry x="280" y="130" width="100" height="50" as="geometry" />
        </mxCell>
        <mxCell id="E6Ye3oewYgmc-_yJtXfk-6" value="" style="endArrow=none;html=1;rounded=0;exitX=0.5;exitY=0.5;exitDx=0;exitDy=0;exitPerimeter=0;entryX=0;entryY=0.5;entryDx=0;entryDy=0;" parent="1" source="E6Ye3oewYgmc-_yJtXfk-1" target="E6Ye3oewYgmc-_yJtXfk-5" edge="1">
          <mxGeometry width="50" height="50" relative="1" as="geometry">
            <mxPoint x="170" y="380" as="sourcePoint" />
            <mxPoint x="220" y="330" as="targetPoint" />
            <Array as="points">
              <mxPoint x="-20" y="155" />
            </Array>
          </mxGeometry>
        </mxCell>
        <mxCell id="E6Ye3oewYgmc-_yJtXfk-7" value="Quản lý môn học" style="ellipse;whiteSpace=wrap;html=1;" parent="1" vertex="1">
          <mxGeometry x="290" y="300" width="100" height="50" as="geometry" />
        </mxCell>
        <mxCell id="E6Ye3oewYgmc-_yJtXfk-8" value="" style="endArrow=none;html=1;rounded=0;exitX=0.5;exitY=0.5;exitDx=0;exitDy=0;exitPerimeter=0;entryX=0;entryY=0.5;entryDx=0;entryDy=0;" parent="1" source="E6Ye3oewYgmc-_yJtXfk-1" target="E6Ye3oewYgmc-_yJtXfk-7" edge="1">
          <mxGeometry width="50" height="50" relative="1" as="geometry">
            <mxPoint x="190" y="520" as="sourcePoint" />
            <mxPoint x="240" y="470" as="targetPoint" />
          </mxGeometry>
        </mxCell>
        <mxCell id="E6Ye3oewYgmc-_yJtXfk-9" value="Include" style="endArrow=open;endSize=12;dashed=1;html=1;rounded=0;entryX=0;entryY=0.5;entryDx=0;entryDy=0;exitX=1;exitY=0.5;exitDx=0;exitDy=0;" parent="1" source="E6Ye3oewYgmc-_yJtXfk-7" target="E6Ye3oewYgmc-_yJtXfk-3" edge="1">
          <mxGeometry width="160" relative="1" as="geometry">
            <mxPoint x="370" y="305" as="sourcePoint" />
            <mxPoint x="580" y="405" as="targetPoint" />
            <Array as="points">
              <mxPoint x="590" y="320" />
            </Array>
          </mxGeometry>
        </mxCell>
        <mxCell id="E6Ye3oewYgmc-_yJtXfk-10" value="Thao tác với học liệu" style="ellipse;whiteSpace=wrap;html=1;" parent="1" vertex="1">
          <mxGeometry x="280" y="540" width="100" height="50" as="geometry" />
        </mxCell>
        <mxCell id="E6Ye3oewYgmc-_yJtXfk-11" value="" style="endArrow=none;html=1;rounded=0;exitX=0.5;exitY=0.5;exitDx=0;exitDy=0;exitPerimeter=0;entryX=0;entryY=0.5;entryDx=0;entryDy=0;" parent="1" source="E6Ye3oewYgmc-_yJtXfk-1" target="E6Ye3oewYgmc-_yJtXfk-10" edge="1">
          <mxGeometry width="50" height="50" relative="1" as="geometry">
            <mxPoint x="115" y="420" as="sourcePoint" />
            <mxPoint x="260" y="515" as="targetPoint" />
          </mxGeometry>
        </mxCell>
        <mxCell id="E6Ye3oewYgmc-_yJtXfk-15" value="Include" style="endArrow=open;endSize=12;dashed=1;html=1;rounded=0;exitX=1;exitY=0.5;exitDx=0;exitDy=0;" parent="1" source="E6Ye3oewYgmc-_yJtXfk-10" target="E6Ye3oewYgmc-_yJtXfk-3" edge="1">
          <mxGeometry width="160" relative="1" as="geometry">
            <mxPoint x="360" y="645" as="sourcePoint" />
            <mxPoint x="585" y="415" as="targetPoint" />
            <Array as="points">
              <mxPoint x="630" y="560" />
            </Array>
          </mxGeometry>
        </mxCell>
        <mxCell id="E6Ye3oewYgmc-_yJtXfk-16" value="Tương tác với nhà trường" style="ellipse;whiteSpace=wrap;html=1;" parent="1" vertex="1">
          <mxGeometry x="290" y="710" width="100" height="50" as="geometry" />
        </mxCell>
        <mxCell id="E6Ye3oewYgmc-_yJtXfk-17" value="" style="endArrow=none;html=1;rounded=0;entryX=0.03;entryY=0.68;entryDx=0;entryDy=0;entryPerimeter=0;" parent="1" source="E6Ye3oewYgmc-_yJtXfk-1" target="E6Ye3oewYgmc-_yJtXfk-16" edge="1">
          <mxGeometry width="50" height="50" relative="1" as="geometry">
            <mxPoint x="115" y="420" as="sourcePoint" />
            <mxPoint x="260" y="715" as="targetPoint" />
            <Array as="points">
              <mxPoint x="-20" y="740" />
            </Array>
          </mxGeometry>
        </mxCell>
        <mxCell id="E6Ye3oewYgmc-_yJtXfk-18" value="Include" style="endArrow=open;endSize=12;dashed=1;html=1;rounded=0;exitX=1;exitY=0.5;exitDx=0;exitDy=0;entryX=0.633;entryY=0.98;entryDx=0;entryDy=0;entryPerimeter=0;" parent="1" source="E6Ye3oewYgmc-_yJtXfk-16" target="E6Ye3oewYgmc-_yJtXfk-3" edge="1">
          <mxGeometry width="160" relative="1" as="geometry">
            <mxPoint x="480" y="800" as="sourcePoint" />
            <mxPoint x="640" y="800" as="targetPoint" />
            <Array as="points">
              <mxPoint x="730" y="740" />
            </Array>
          </mxGeometry>
        </mxCell>
        <mxCell id="E6Ye3oewYgmc-_yJtXfk-19" value="Xem thông tin cá nhân&amp;nbsp;" style="ellipse;whiteSpace=wrap;html=1;" parent="1" vertex="1">
          <mxGeometry x="110" width="90" height="50" as="geometry" />
        </mxCell>
        <mxCell id="E6Ye3oewYgmc-_yJtXfk-20" value="Cập nhật thông tin cá nhân" style="ellipse;whiteSpace=wrap;html=1;" parent="1" vertex="1">
          <mxGeometry x="220" y="-60" width="90" height="50" as="geometry" />
        </mxCell>
        <mxCell id="E6Ye3oewYgmc-_yJtXfk-24" value="" style="endArrow=block;dashed=1;endFill=0;endSize=12;html=1;rounded=0;exitX=0.589;exitY=0.98;exitDx=0;exitDy=0;exitPerimeter=0;" parent="1" source="E6Ye3oewYgmc-_yJtXfk-19" target="E6Ye3oewYgmc-_yJtXfk-5" edge="1">
          <mxGeometry width="160" relative="1" as="geometry">
            <mxPoint x="80" y="160" as="sourcePoint" />
            <mxPoint x="240" y="160" as="targetPoint" />
          </mxGeometry>
        </mxCell>
        <mxCell id="E6Ye3oewYgmc-_yJtXfk-25" value="Extends" style="edgeLabel;html=1;align=center;verticalAlign=middle;resizable=0;points=[];" parent="E6Ye3oewYgmc-_yJtXfk-24" vertex="1" connectable="0">
          <mxGeometry x="-0.1875" y="4" relative="1" as="geometry">
            <mxPoint as="offset" />
          </mxGeometry>
        </mxCell>
        <mxCell id="E6Ye3oewYgmc-_yJtXfk-26" value="" style="endArrow=block;dashed=1;endFill=0;endSize=12;html=1;rounded=0;exitX=0.5;exitY=1;exitDx=0;exitDy=0;entryX=0.4;entryY=0.04;entryDx=0;entryDy=0;entryPerimeter=0;" parent="1" source="E6Ye3oewYgmc-_yJtXfk-20" target="E6Ye3oewYgmc-_yJtXfk-5" edge="1">
          <mxGeometry width="160" relative="1" as="geometry">
            <mxPoint x="273" y="79" as="sourcePoint" />
            <mxPoint x="322" y="142" as="targetPoint" />
          </mxGeometry>
        </mxCell>
        <mxCell id="E6Ye3oewYgmc-_yJtXfk-27" value="Extends" style="edgeLabel;html=1;align=center;verticalAlign=middle;resizable=0;points=[];" parent="E6Ye3oewYgmc-_yJtXfk-26" vertex="1" connectable="0">
          <mxGeometry x="-0.1875" y="4" relative="1" as="geometry">
            <mxPoint as="offset" />
          </mxGeometry>
        </mxCell>
        <mxCell id="E6Ye3oewYgmc-_yJtXfk-28" value="Đăng ký môn học" style="ellipse;whiteSpace=wrap;html=1;" parent="1" vertex="1">
          <mxGeometry x="240" y="200" width="90" height="50" as="geometry" />
        </mxCell>
        <mxCell id="E6Ye3oewYgmc-_yJtXfk-29" value="Xem thời khóa biểu môn học" style="ellipse;whiteSpace=wrap;html=1;" parent="1" vertex="1">
          <mxGeometry x="350" y="200" width="90" height="50" as="geometry" />
        </mxCell>
        <mxCell id="E6Ye3oewYgmc-_yJtXfk-31" value="" style="endArrow=block;dashed=1;endFill=0;endSize=12;html=1;rounded=0;exitX=0.5;exitY=1;exitDx=0;exitDy=0;entryX=0.36;entryY=0.06;entryDx=0;entryDy=0;entryPerimeter=0;" parent="1" source="E6Ye3oewYgmc-_yJtXfk-28" target="E6Ye3oewYgmc-_yJtXfk-7" edge="1">
          <mxGeometry width="160" relative="1" as="geometry">
            <mxPoint x="231" y="250" as="sourcePoint" />
            <mxPoint x="327" y="297" as="targetPoint" />
          </mxGeometry>
        </mxCell>
        <mxCell id="E6Ye3oewYgmc-_yJtXfk-32" value="Extends" style="edgeLabel;html=1;align=center;verticalAlign=middle;resizable=0;points=[];" parent="E6Ye3oewYgmc-_yJtXfk-31" vertex="1" connectable="0">
          <mxGeometry x="-0.1875" y="4" relative="1" as="geometry">
            <mxPoint as="offset" />
          </mxGeometry>
        </mxCell>
        <mxCell id="E6Ye3oewYgmc-_yJtXfk-33" value="" style="endArrow=block;dashed=1;endFill=0;endSize=12;html=1;rounded=0;exitX=0.5;exitY=1;exitDx=0;exitDy=0;entryX=0.66;entryY=0.02;entryDx=0;entryDy=0;entryPerimeter=0;" parent="1" source="E6Ye3oewYgmc-_yJtXfk-29" target="E6Ye3oewYgmc-_yJtXfk-7" edge="1">
          <mxGeometry width="160" relative="1" as="geometry">
            <mxPoint x="241" y="260" as="sourcePoint" />
            <mxPoint x="290" y="323" as="targetPoint" />
          </mxGeometry>
        </mxCell>
        <mxCell id="E6Ye3oewYgmc-_yJtXfk-34" value="Extends" style="edgeLabel;html=1;align=center;verticalAlign=middle;resizable=0;points=[];" parent="E6Ye3oewYgmc-_yJtXfk-33" vertex="1" connectable="0">
          <mxGeometry x="-0.1875" y="4" relative="1" as="geometry">
            <mxPoint as="offset" />
          </mxGeometry>
        </mxCell>
        <mxCell id="E6Ye3oewYgmc-_yJtXfk-35" value="Thêm môn học" style="ellipse;whiteSpace=wrap;html=1;" parent="1" vertex="1">
          <mxGeometry x="90" y="160" width="90" height="50" as="geometry" />
        </mxCell>
        <mxCell id="E6Ye3oewYgmc-_yJtXfk-36" value="Tìm môn học" style="ellipse;whiteSpace=wrap;html=1;" parent="1" vertex="1">
          <mxGeometry x="90" y="250" width="90" height="50" as="geometry" />
        </mxCell>
        <mxCell id="E6Ye3oewYgmc-_yJtXfk-37" value="" style="endArrow=block;dashed=1;endFill=0;endSize=12;html=1;rounded=0;exitX=1;exitY=0.5;exitDx=0;exitDy=0;" parent="1" source="E6Ye3oewYgmc-_yJtXfk-35" target="E6Ye3oewYgmc-_yJtXfk-28" edge="1">
          <mxGeometry width="160" relative="1" as="geometry">
            <mxPoint x="115" y="30" as="sourcePoint" />
            <mxPoint x="250" y="180" as="targetPoint" />
          </mxGeometry>
        </mxCell>
        <mxCell id="E6Ye3oewYgmc-_yJtXfk-38" value="Extends" style="edgeLabel;html=1;align=center;verticalAlign=middle;resizable=0;points=[];" parent="E6Ye3oewYgmc-_yJtXfk-37" vertex="1" connectable="0">
          <mxGeometry x="-0.1875" y="4" relative="1" as="geometry">
            <mxPoint as="offset" />
          </mxGeometry>
        </mxCell>
        <mxCell id="E6Ye3oewYgmc-_yJtXfk-39" value="" style="endArrow=block;dashed=1;endFill=0;endSize=12;html=1;rounded=0;exitX=1;exitY=0.5;exitDx=0;exitDy=0;entryX=0;entryY=1;entryDx=0;entryDy=0;" parent="1" source="E6Ye3oewYgmc-_yJtXfk-36" target="E6Ye3oewYgmc-_yJtXfk-28" edge="1">
          <mxGeometry width="160" relative="1" as="geometry">
            <mxPoint x="190" y="195" as="sourcePoint" />
            <mxPoint x="258" y="221" as="targetPoint" />
          </mxGeometry>
        </mxCell>
        <mxCell id="E6Ye3oewYgmc-_yJtXfk-40" value="Extends" style="edgeLabel;html=1;align=center;verticalAlign=middle;resizable=0;points=[];" parent="E6Ye3oewYgmc-_yJtXfk-39" vertex="1" connectable="0">
          <mxGeometry x="-0.1875" y="4" relative="1" as="geometry">
            <mxPoint as="offset" />
          </mxGeometry>
        </mxCell>
        <mxCell id="E6Ye3oewYgmc-_yJtXfk-42" value="Xem điểm" style="ellipse;whiteSpace=wrap;html=1;" parent="1" vertex="1">
          <mxGeometry x="360" y="-60" width="90" height="50" as="geometry" />
        </mxCell>
        <mxCell id="E6Ye3oewYgmc-_yJtXfk-43" value="Xem học phí" style="ellipse;whiteSpace=wrap;html=1;" parent="1" vertex="1">
          <mxGeometry x="510" y="-30" width="90" height="50" as="geometry" />
        </mxCell>
        <mxCell id="E6Ye3oewYgmc-_yJtXfk-44" value="" style="endArrow=block;dashed=1;endFill=0;endSize=12;html=1;rounded=0;exitX=0.5;exitY=1;exitDx=0;exitDy=0;entryX=0.65;entryY=0.02;entryDx=0;entryDy=0;entryPerimeter=0;" parent="1" source="E6Ye3oewYgmc-_yJtXfk-42" target="E6Ye3oewYgmc-_yJtXfk-5" edge="1">
          <mxGeometry width="160" relative="1" as="geometry">
            <mxPoint x="395" y="80" as="sourcePoint" />
            <mxPoint x="364" y="143" as="targetPoint" />
          </mxGeometry>
        </mxCell>
        <mxCell id="E6Ye3oewYgmc-_yJtXfk-45" value="Extends" style="edgeLabel;html=1;align=center;verticalAlign=middle;resizable=0;points=[];" parent="E6Ye3oewYgmc-_yJtXfk-44" vertex="1" connectable="0">
          <mxGeometry x="-0.1875" y="4" relative="1" as="geometry">
            <mxPoint as="offset" />
          </mxGeometry>
        </mxCell>
        <mxCell id="E6Ye3oewYgmc-_yJtXfk-46" value="" style="endArrow=block;dashed=1;endFill=0;endSize=12;html=1;rounded=0;exitX=0.356;exitY=0.98;exitDx=0;exitDy=0;entryX=1;entryY=0.4;entryDx=0;entryDy=0;entryPerimeter=0;exitPerimeter=0;" parent="1" source="E6Ye3oewYgmc-_yJtXfk-43" target="E6Ye3oewYgmc-_yJtXfk-5" edge="1">
          <mxGeometry width="160" relative="1" as="geometry">
            <mxPoint x="525" y="80" as="sourcePoint" />
            <mxPoint x="387" y="153" as="targetPoint" />
          </mxGeometry>
        </mxCell>
        <mxCell id="E6Ye3oewYgmc-_yJtXfk-47" value="Extends" style="edgeLabel;html=1;align=center;verticalAlign=middle;resizable=0;points=[];" parent="E6Ye3oewYgmc-_yJtXfk-46" vertex="1" connectable="0">
          <mxGeometry x="-0.1875" y="4" relative="1" as="geometry">
            <mxPoint as="offset" />
          </mxGeometry>
        </mxCell>
        <mxCell id="E6Ye3oewYgmc-_yJtXfk-48" value="Tìm kiếm học liệu" style="ellipse;whiteSpace=wrap;html=1;" parent="1" vertex="1">
          <mxGeometry x="150" y="420" width="90" height="50" as="geometry" />
        </mxCell>
        <mxCell id="E6Ye3oewYgmc-_yJtXfk-49" value="Tải về" style="ellipse;whiteSpace=wrap;html=1;" parent="1" vertex="1">
          <mxGeometry x="270" y="400" width="90" height="50" as="geometry" />
        </mxCell>
        <mxCell id="E6Ye3oewYgmc-_yJtXfk-50" value="Xem danh sách" style="ellipse;whiteSpace=wrap;html=1;" parent="1" vertex="1">
          <mxGeometry x="390" y="400" width="90" height="50" as="geometry" />
        </mxCell>
        <mxCell id="E6Ye3oewYgmc-_yJtXfk-51" value="" style="endArrow=block;dashed=1;endFill=0;endSize=12;html=1;rounded=0;exitX=0.5;exitY=1;exitDx=0;exitDy=0;" parent="1" source="E6Ye3oewYgmc-_yJtXfk-48" target="E6Ye3oewYgmc-_yJtXfk-10" edge="1">
          <mxGeometry width="160" relative="1" as="geometry">
            <mxPoint x="295" y="260" as="sourcePoint" />
            <mxPoint x="336" y="313" as="targetPoint" />
          </mxGeometry>
        </mxCell>
        <mxCell id="E6Ye3oewYgmc-_yJtXfk-52" value="Extends" style="edgeLabel;html=1;align=center;verticalAlign=middle;resizable=0;points=[];" parent="E6Ye3oewYgmc-_yJtXfk-51" vertex="1" connectable="0">
          <mxGeometry x="-0.1875" y="4" relative="1" as="geometry">
            <mxPoint as="offset" />
          </mxGeometry>
        </mxCell>
        <mxCell id="E6Ye3oewYgmc-_yJtXfk-53" value="" style="endArrow=block;dashed=1;endFill=0;endSize=12;html=1;rounded=0;exitX=0.389;exitY=1;exitDx=0;exitDy=0;entryX=0.5;entryY=0;entryDx=0;entryDy=0;entryPerimeter=0;exitPerimeter=0;" parent="1" source="E6Ye3oewYgmc-_yJtXfk-49" target="E6Ye3oewYgmc-_yJtXfk-10" edge="1">
          <mxGeometry width="160" relative="1" as="geometry">
            <mxPoint x="255" y="470" as="sourcePoint" />
            <mxPoint x="321" y="552" as="targetPoint" />
          </mxGeometry>
        </mxCell>
        <mxCell id="E6Ye3oewYgmc-_yJtXfk-54" value="Extends" style="edgeLabel;html=1;align=center;verticalAlign=middle;resizable=0;points=[];" parent="E6Ye3oewYgmc-_yJtXfk-53" vertex="1" connectable="0">
          <mxGeometry x="-0.1875" y="4" relative="1" as="geometry">
            <mxPoint as="offset" />
          </mxGeometry>
        </mxCell>
        <mxCell id="E6Ye3oewYgmc-_yJtXfk-55" value="" style="endArrow=block;dashed=1;endFill=0;endSize=12;html=1;rounded=0;exitX=0.5;exitY=1;exitDx=0;exitDy=0;entryX=1;entryY=0;entryDx=0;entryDy=0;" parent="1" source="E6Ye3oewYgmc-_yJtXfk-50" target="E6Ye3oewYgmc-_yJtXfk-10" edge="1">
          <mxGeometry width="160" relative="1" as="geometry">
            <mxPoint x="355" y="470" as="sourcePoint" />
            <mxPoint x="350" y="548" as="targetPoint" />
          </mxGeometry>
        </mxCell>
        <mxCell id="E6Ye3oewYgmc-_yJtXfk-56" value="Extends" style="edgeLabel;html=1;align=center;verticalAlign=middle;resizable=0;points=[];" parent="E6Ye3oewYgmc-_yJtXfk-55" vertex="1" connectable="0">
          <mxGeometry x="-0.1875" y="4" relative="1" as="geometry">
            <mxPoint as="offset" />
          </mxGeometry>
        </mxCell>
        <mxCell id="E6Ye3oewYgmc-_yJtXfk-57" value="Nhắn tin cho quản trị" style="ellipse;whiteSpace=wrap;html=1;" parent="1" vertex="1">
          <mxGeometry x="210" y="620" width="90" height="50" as="geometry" />
        </mxCell>
        <mxCell id="E6Ye3oewYgmc-_yJtXfk-58" value="&amp;nbsp;Hỏi đáp cùng chatbot" style="ellipse;whiteSpace=wrap;html=1;" parent="1" vertex="1">
          <mxGeometry x="380" y="620" width="90" height="50" as="geometry" />
        </mxCell>
        <mxCell id="E6Ye3oewYgmc-_yJtXfk-59" value="" style="endArrow=block;dashed=1;endFill=0;endSize=12;html=1;rounded=0;exitX=0.5;exitY=1;exitDx=0;exitDy=0;entryX=0;entryY=0;entryDx=0;entryDy=0;" parent="1" source="E6Ye3oewYgmc-_yJtXfk-57" target="E6Ye3oewYgmc-_yJtXfk-16" edge="1">
          <mxGeometry width="160" relative="1" as="geometry">
            <mxPoint x="205" y="480" as="sourcePoint" />
            <mxPoint x="311" y="555" as="targetPoint" />
          </mxGeometry>
        </mxCell>
        <mxCell id="E6Ye3oewYgmc-_yJtXfk-60" value="Extends" style="edgeLabel;html=1;align=center;verticalAlign=middle;resizable=0;points=[];" parent="E6Ye3oewYgmc-_yJtXfk-59" vertex="1" connectable="0">
          <mxGeometry x="-0.1875" y="4" relative="1" as="geometry">
            <mxPoint as="offset" />
          </mxGeometry>
        </mxCell>
        <mxCell id="E6Ye3oewYgmc-_yJtXfk-61" value="" style="endArrow=block;dashed=1;endFill=0;endSize=12;html=1;rounded=0;exitX=0.5;exitY=1;exitDx=0;exitDy=0;entryX=1;entryY=0;entryDx=0;entryDy=0;" parent="1" source="E6Ye3oewYgmc-_yJtXfk-58" target="E6Ye3oewYgmc-_yJtXfk-16" edge="1">
          <mxGeometry width="160" relative="1" as="geometry">
            <mxPoint x="265" y="680" as="sourcePoint" />
            <mxPoint x="315" y="727" as="targetPoint" />
          </mxGeometry>
        </mxCell>
        <mxCell id="E6Ye3oewYgmc-_yJtXfk-62" value="Extends" style="edgeLabel;html=1;align=center;verticalAlign=middle;resizable=0;points=[];" parent="E6Ye3oewYgmc-_yJtXfk-61" vertex="1" connectable="0">
          <mxGeometry x="-0.1875" y="4" relative="1" as="geometry">
            <mxPoint as="offset" />
          </mxGeometry>
        </mxCell>
        <mxCell id="E6Ye3oewYgmc-_yJtXfk-63" value="Logout" style="ellipse;whiteSpace=wrap;html=1;" parent="1" vertex="1">
          <mxGeometry x="800" y="85" width="90" height="50" as="geometry" />
        </mxCell>
        <mxCell id="E6Ye3oewYgmc-_yJtXfk-68" value="Quản lý danh sách sinh viên" style="ellipse;whiteSpace=wrap;html=1;" parent="1" vertex="1">
          <mxGeometry x="1200" y="135" width="120" height="65" as="geometry" />
        </mxCell>
        <mxCell id="E6Ye3oewYgmc-_yJtXfk-69" value="Quản lý điểm số" style="ellipse;whiteSpace=wrap;html=1;" parent="1" vertex="1">
          <mxGeometry x="1200" y="300" width="120" height="65" as="geometry" />
        </mxCell>
        <mxCell id="E6Ye3oewYgmc-_yJtXfk-70" value="Quản lý tài liệu" style="ellipse;whiteSpace=wrap;html=1;" parent="1" vertex="1">
          <mxGeometry x="1200" y="450" width="120" height="65" as="geometry" />
        </mxCell>
        <mxCell id="E6Ye3oewYgmc-_yJtXfk-71" value="Quản lý môn học" style="ellipse;whiteSpace=wrap;html=1;" parent="1" vertex="1">
          <mxGeometry x="1200" y="612.5" width="120" height="65" as="geometry" />
        </mxCell>
        <mxCell id="E6Ye3oewYgmc-_yJtXfk-72" value="Quản lý tương tác" style="ellipse;whiteSpace=wrap;html=1;" parent="1" vertex="1">
          <mxGeometry x="1210" y="920" width="120" height="65" as="geometry" />
        </mxCell>
        <mxCell id="E6Ye3oewYgmc-_yJtXfk-73" value="" style="endArrow=none;html=1;rounded=0;entryX=0.5;entryY=0.5;entryDx=0;entryDy=0;entryPerimeter=0;exitX=1;exitY=0.5;exitDx=0;exitDy=0;" parent="1" source="E6Ye3oewYgmc-_yJtXfk-68" target="E6Ye3oewYgmc-_yJtXfk-2" edge="1">
          <mxGeometry width="50" height="50" relative="1" as="geometry">
            <mxPoint x="1480" y="190" as="sourcePoint" />
            <mxPoint x="1370" y="300" as="targetPoint" />
          </mxGeometry>
        </mxCell>
        <mxCell id="E6Ye3oewYgmc-_yJtXfk-74" value="Xem lịch thi" style="ellipse;whiteSpace=wrap;html=1;" parent="1" vertex="1">
          <mxGeometry x="620" width="90" height="50" as="geometry" />
        </mxCell>
        <mxCell id="E6Ye3oewYgmc-_yJtXfk-75" value="" style="endArrow=block;dashed=1;endFill=0;endSize=12;html=1;rounded=0;exitX=0.333;exitY=1;exitDx=0;exitDy=0;entryX=1;entryY=0.5;entryDx=0;entryDy=0;exitPerimeter=0;" parent="1" source="E6Ye3oewYgmc-_yJtXfk-74" target="E6Ye3oewYgmc-_yJtXfk-5" edge="1">
          <mxGeometry width="160" relative="1" as="geometry">
            <mxPoint x="552" y="29" as="sourcePoint" />
            <mxPoint x="390" y="160" as="targetPoint" />
          </mxGeometry>
        </mxCell>
        <mxCell id="E6Ye3oewYgmc-_yJtXfk-76" value="Extends" style="edgeLabel;html=1;align=center;verticalAlign=middle;resizable=0;points=[];" parent="E6Ye3oewYgmc-_yJtXfk-75" vertex="1" connectable="0">
          <mxGeometry x="-0.1875" y="4" relative="1" as="geometry">
            <mxPoint as="offset" />
          </mxGeometry>
        </mxCell>
        <mxCell id="E6Ye3oewYgmc-_yJtXfk-77" value="Quản lý lịch thi" style="ellipse;whiteSpace=wrap;html=1;" parent="1" vertex="1">
          <mxGeometry x="1210" y="770" width="120" height="65" as="geometry" />
        </mxCell>
        <mxCell id="E6Ye3oewYgmc-_yJtXfk-78" value="Include" style="endArrow=open;endSize=12;dashed=1;html=1;rounded=0;exitX=0;exitY=0.5;exitDx=0;exitDy=0;entryX=1;entryY=0.5;entryDx=0;entryDy=0;" parent="1" source="E6Ye3oewYgmc-_yJtXfk-68" target="E6Ye3oewYgmc-_yJtXfk-3" edge="1">
          <mxGeometry width="160" relative="1" as="geometry">
            <mxPoint x="840" y="500" as="sourcePoint" />
            <mxPoint x="1000" y="500" as="targetPoint" />
            <Array as="points">
              <mxPoint x="950" y="170" />
            </Array>
          </mxGeometry>
        </mxCell>
        <mxCell id="E6Ye3oewYgmc-_yJtXfk-79" value="Include" style="endArrow=open;endSize=12;dashed=1;html=1;rounded=0;exitX=0;exitY=0.5;exitDx=0;exitDy=0;entryX=1;entryY=0.5;entryDx=0;entryDy=0;" parent="1" source="E6Ye3oewYgmc-_yJtXfk-69" target="E6Ye3oewYgmc-_yJtXfk-3" edge="1">
          <mxGeometry width="160" relative="1" as="geometry">
            <mxPoint x="1200" y="195" as="sourcePoint" />
            <mxPoint x="770" y="395" as="targetPoint" />
            <Array as="points">
              <mxPoint x="980" y="330" />
            </Array>
          </mxGeometry>
        </mxCell>
        <mxCell id="E6Ye3oewYgmc-_yJtXfk-80" value="Include" style="endArrow=open;endSize=12;dashed=1;html=1;rounded=0;exitX=0;exitY=0.5;exitDx=0;exitDy=0;entryX=1;entryY=0.5;entryDx=0;entryDy=0;" parent="1" source="E6Ye3oewYgmc-_yJtXfk-70" target="E6Ye3oewYgmc-_yJtXfk-3" edge="1">
          <mxGeometry width="160" relative="1" as="geometry">
            <mxPoint x="1210" y="343" as="sourcePoint" />
            <mxPoint x="770" y="395" as="targetPoint" />
            <Array as="points">
              <mxPoint x="980" y="480" />
            </Array>
          </mxGeometry>
        </mxCell>
        <mxCell id="E6Ye3oewYgmc-_yJtXfk-81" value="Include" style="endArrow=open;endSize=12;dashed=1;html=1;rounded=0;exitX=0;exitY=0.5;exitDx=0;exitDy=0;" parent="1" source="E6Ye3oewYgmc-_yJtXfk-71" edge="1">
          <mxGeometry width="160" relative="1" as="geometry">
            <mxPoint x="1210" y="493" as="sourcePoint" />
            <mxPoint x="760" y="390" as="targetPoint" />
            <Array as="points">
              <mxPoint x="920" y="640" />
            </Array>
          </mxGeometry>
        </mxCell>
        <mxCell id="E6Ye3oewYgmc-_yJtXfk-82" value="Include" style="endArrow=open;endSize=12;dashed=1;html=1;rounded=0;exitX=0;exitY=0.5;exitDx=0;exitDy=0;entryX=0.978;entryY=0.82;entryDx=0;entryDy=0;entryPerimeter=0;" parent="1" source="E6Ye3oewYgmc-_yJtXfk-77" target="E6Ye3oewYgmc-_yJtXfk-3" edge="1">
          <mxGeometry width="160" relative="1" as="geometry">
            <mxPoint x="1210" y="655" as="sourcePoint" />
            <mxPoint x="770" y="400" as="targetPoint" />
            <Array as="points">
              <mxPoint x="850" y="800" />
            </Array>
          </mxGeometry>
        </mxCell>
        <mxCell id="E6Ye3oewYgmc-_yJtXfk-83" value="Include" style="endArrow=open;endSize=12;dashed=1;html=1;rounded=0;exitX=-0.017;exitY=0.385;exitDx=0;exitDy=0;entryX=1;entryY=1;entryDx=0;entryDy=0;exitPerimeter=0;" parent="1" source="E6Ye3oewYgmc-_yJtXfk-72" target="E6Ye3oewYgmc-_yJtXfk-3" edge="1">
          <mxGeometry width="160" relative="1" as="geometry">
            <mxPoint x="1210" y="783" as="sourcePoint" />
            <mxPoint x="768" y="411" as="targetPoint" />
            <Array as="points">
              <mxPoint x="760" y="940" />
            </Array>
          </mxGeometry>
        </mxCell>
        <mxCell id="E6Ye3oewYgmc-_yJtXfk-84" value="" style="endArrow=none;html=1;rounded=0;exitX=1;exitY=0.5;exitDx=0;exitDy=0;" parent="1" source="E6Ye3oewYgmc-_yJtXfk-69" target="E6Ye3oewYgmc-_yJtXfk-2" edge="1">
          <mxGeometry width="50" height="50" relative="1" as="geometry">
            <mxPoint x="1330" y="178" as="sourcePoint" />
            <mxPoint x="1645" y="430" as="targetPoint" />
          </mxGeometry>
        </mxCell>
        <mxCell id="E6Ye3oewYgmc-_yJtXfk-85" value="" style="endArrow=none;html=1;rounded=0;exitX=1;exitY=0.5;exitDx=0;exitDy=0;entryX=0.5;entryY=0.5;entryDx=0;entryDy=0;entryPerimeter=0;" parent="1" source="E6Ye3oewYgmc-_yJtXfk-70" target="E6Ye3oewYgmc-_yJtXfk-2" edge="1">
          <mxGeometry width="50" height="50" relative="1" as="geometry">
            <mxPoint x="1330" y="343" as="sourcePoint" />
            <mxPoint x="1640" y="436" as="targetPoint" />
          </mxGeometry>
        </mxCell>
        <mxCell id="E6Ye3oewYgmc-_yJtXfk-86" value="" style="endArrow=none;html=1;rounded=0;exitX=1;exitY=0.5;exitDx=0;exitDy=0;entryX=0.5;entryY=0.5;entryDx=0;entryDy=0;entryPerimeter=0;" parent="1" source="E6Ye3oewYgmc-_yJtXfk-71" target="E6Ye3oewYgmc-_yJtXfk-2" edge="1">
          <mxGeometry width="50" height="50" relative="1" as="geometry">
            <mxPoint x="1330" y="493" as="sourcePoint" />
            <mxPoint x="1655" y="440" as="targetPoint" />
          </mxGeometry>
        </mxCell>
        <mxCell id="E6Ye3oewYgmc-_yJtXfk-87" value="" style="endArrow=none;html=1;rounded=0;exitX=1.017;exitY=0.308;exitDx=0;exitDy=0;entryX=0.5;entryY=0.5;entryDx=0;entryDy=0;entryPerimeter=0;exitPerimeter=0;" parent="1" source="E6Ye3oewYgmc-_yJtXfk-77" target="E6Ye3oewYgmc-_yJtXfk-2" edge="1">
          <mxGeometry width="50" height="50" relative="1" as="geometry">
            <mxPoint x="1330" y="655" as="sourcePoint" />
            <mxPoint x="1655" y="440" as="targetPoint" />
            <Array as="points">
              <mxPoint x="1530" y="790" />
            </Array>
          </mxGeometry>
        </mxCell>
        <mxCell id="E6Ye3oewYgmc-_yJtXfk-88" value="" style="endArrow=none;html=1;rounded=0;exitX=1.017;exitY=0.415;exitDx=0;exitDy=0;entryX=0.5;entryY=0.5;entryDx=0;entryDy=0;entryPerimeter=0;exitPerimeter=0;" parent="1" source="E6Ye3oewYgmc-_yJtXfk-72" target="E6Ye3oewYgmc-_yJtXfk-2" edge="1">
          <mxGeometry width="50" height="50" relative="1" as="geometry">
            <mxPoint x="1330" y="655" as="sourcePoint" />
            <mxPoint x="1685" y="440" as="targetPoint" />
            <Array as="points">
              <mxPoint x="1570" y="947" />
            </Array>
          </mxGeometry>
        </mxCell>
        <mxCell id="E6Ye3oewYgmc-_yJtXfk-89" value="Xem danh sách sinh viên" style="ellipse;whiteSpace=wrap;html=1;" parent="1" vertex="1">
          <mxGeometry x="1140" y="-30" width="90" height="50" as="geometry" />
        </mxCell>
        <mxCell id="E6Ye3oewYgmc-_yJtXfk-90" value="&amp;nbsp;Cập nhật sinh viên" style="ellipse;whiteSpace=wrap;html=1;" parent="1" vertex="1">
          <mxGeometry x="1300" y="-30" width="90" height="50" as="geometry" />
        </mxCell>
        <mxCell id="E6Ye3oewYgmc-_yJtXfk-91" value="" style="endArrow=block;dashed=1;endFill=0;endSize=12;html=1;rounded=0;exitX=0.344;exitY=0.98;exitDx=0;exitDy=0;entryX=0.583;entryY=0;entryDx=0;entryDy=0;exitPerimeter=0;entryPerimeter=0;" parent="1" source="E6Ye3oewYgmc-_yJtXfk-90" target="E6Ye3oewYgmc-_yJtXfk-68" edge="1">
          <mxGeometry width="160" relative="1" as="geometry">
            <mxPoint x="1480" y="40" as="sourcePoint" />
            <mxPoint x="1210" y="145" as="targetPoint" />
          </mxGeometry>
        </mxCell>
        <mxCell id="E6Ye3oewYgmc-_yJtXfk-92" value="Extends" style="edgeLabel;html=1;align=center;verticalAlign=middle;resizable=0;points=[];" parent="E6Ye3oewYgmc-_yJtXfk-91" vertex="1" connectable="0">
          <mxGeometry x="-0.1875" y="4" relative="1" as="geometry">
            <mxPoint as="offset" />
          </mxGeometry>
        </mxCell>
        <mxCell id="E6Ye3oewYgmc-_yJtXfk-93" value="" style="endArrow=block;dashed=1;endFill=0;endSize=12;html=1;rounded=0;exitX=0.4;exitY=1.06;exitDx=0;exitDy=0;entryX=0.333;entryY=0.062;entryDx=0;entryDy=0;exitPerimeter=0;entryPerimeter=0;" parent="1" source="E6Ye3oewYgmc-_yJtXfk-89" target="E6Ye3oewYgmc-_yJtXfk-68" edge="1">
          <mxGeometry width="160" relative="1" as="geometry">
            <mxPoint x="1341" y="29" as="sourcePoint" />
            <mxPoint x="1291" y="145" as="targetPoint" />
          </mxGeometry>
        </mxCell>
        <mxCell id="E6Ye3oewYgmc-_yJtXfk-94" value="Extends" style="edgeLabel;html=1;align=center;verticalAlign=middle;resizable=0;points=[];" parent="E6Ye3oewYgmc-_yJtXfk-93" vertex="1" connectable="0">
          <mxGeometry x="-0.1875" y="4" relative="1" as="geometry">
            <mxPoint as="offset" />
          </mxGeometry>
        </mxCell>
        <mxCell id="E6Ye3oewYgmc-_yJtXfk-95" value="Thêm sinh viên" style="ellipse;whiteSpace=wrap;html=1;" parent="1" vertex="1">
          <mxGeometry x="980" y="-30" width="90" height="50" as="geometry" />
        </mxCell>
        <mxCell id="E6Ye3oewYgmc-_yJtXfk-96" value="&amp;nbsp;Xóa sinh viên" style="ellipse;whiteSpace=wrap;html=1;" parent="1" vertex="1">
          <mxGeometry x="1410" y="-20" width="90" height="50" as="geometry" />
        </mxCell>
        <mxCell id="E6Ye3oewYgmc-_yJtXfk-97" value="" style="endArrow=block;dashed=1;endFill=0;endSize=12;html=1;rounded=0;exitX=0.578;exitY=1.04;exitDx=0;exitDy=0;entryX=0;entryY=0;entryDx=0;entryDy=0;exitPerimeter=0;" parent="1" source="E6Ye3oewYgmc-_yJtXfk-95" target="E6Ye3oewYgmc-_yJtXfk-68" edge="1">
          <mxGeometry width="160" relative="1" as="geometry">
            <mxPoint x="1186" y="33" as="sourcePoint" />
            <mxPoint x="1250" y="149" as="targetPoint" />
          </mxGeometry>
        </mxCell>
        <mxCell id="E6Ye3oewYgmc-_yJtXfk-98" value="Extends" style="edgeLabel;html=1;align=center;verticalAlign=middle;resizable=0;points=[];" parent="E6Ye3oewYgmc-_yJtXfk-97" vertex="1" connectable="0">
          <mxGeometry x="-0.1875" y="4" relative="1" as="geometry">
            <mxPoint as="offset" />
          </mxGeometry>
        </mxCell>
        <mxCell id="E6Ye3oewYgmc-_yJtXfk-99" value="" style="endArrow=block;dashed=1;endFill=0;endSize=12;html=1;rounded=0;exitX=0.411;exitY=1;exitDx=0;exitDy=0;entryX=1;entryY=0;entryDx=0;entryDy=0;exitPerimeter=0;" parent="1" source="E6Ye3oewYgmc-_yJtXfk-96" target="E6Ye3oewYgmc-_yJtXfk-68" edge="1">
          <mxGeometry width="160" relative="1" as="geometry">
            <mxPoint x="1341" y="29" as="sourcePoint" />
            <mxPoint x="1280" y="145" as="targetPoint" />
          </mxGeometry>
        </mxCell>
        <mxCell id="E6Ye3oewYgmc-_yJtXfk-100" value="Extends" style="edgeLabel;html=1;align=center;verticalAlign=middle;resizable=0;points=[];" parent="E6Ye3oewYgmc-_yJtXfk-99" vertex="1" connectable="0">
          <mxGeometry x="-0.1875" y="4" relative="1" as="geometry">
            <mxPoint as="offset" />
          </mxGeometry>
        </mxCell>
        <mxCell id="E6Ye3oewYgmc-_yJtXfk-101" value="Tìm kiếm sinh viên" style="ellipse;whiteSpace=wrap;html=1;" parent="1" vertex="1">
          <mxGeometry x="1520" width="90" height="50" as="geometry" />
        </mxCell>
        <mxCell id="E6Ye3oewYgmc-_yJtXfk-102" value="" style="endArrow=block;dashed=1;endFill=0;endSize=12;html=1;rounded=0;exitX=0.4;exitY=1.08;exitDx=0;exitDy=0;entryX=1;entryY=0.4;entryDx=0;entryDy=0;exitPerimeter=0;entryPerimeter=0;" parent="1" source="E6Ye3oewYgmc-_yJtXfk-101" target="E6Ye3oewYgmc-_yJtXfk-68" edge="1">
          <mxGeometry width="160" relative="1" as="geometry">
            <mxPoint x="1457" y="40" as="sourcePoint" />
            <mxPoint x="1313" y="155" as="targetPoint" />
          </mxGeometry>
        </mxCell>
        <mxCell id="E6Ye3oewYgmc-_yJtXfk-103" value="Extends" style="edgeLabel;html=1;align=center;verticalAlign=middle;resizable=0;points=[];" parent="E6Ye3oewYgmc-_yJtXfk-102" vertex="1" connectable="0">
          <mxGeometry x="-0.1875" y="4" relative="1" as="geometry">
            <mxPoint as="offset" />
          </mxGeometry>
        </mxCell>
        <mxCell id="E6Ye3oewYgmc-_yJtXfk-105" value="Cập nhật điểm số" style="ellipse;whiteSpace=wrap;html=1;" parent="1" vertex="1">
          <mxGeometry x="1100" y="200" width="100" height="50" as="geometry" />
        </mxCell>
        <mxCell id="E6Ye3oewYgmc-_yJtXfk-108" value="" style="endArrow=block;dashed=1;endFill=0;endSize=12;html=1;rounded=0;exitX=1;exitY=1;exitDx=0;exitDy=0;entryX=0.567;entryY=0.015;entryDx=0;entryDy=0;entryPerimeter=0;" parent="1" source="E6Ye3oewYgmc-_yJtXfk-105" target="E6Ye3oewYgmc-_yJtXfk-69" edge="1">
          <mxGeometry width="160" relative="1" as="geometry">
            <mxPoint x="1173" y="268" as="sourcePoint" />
            <mxPoint x="1244" y="316" as="targetPoint" />
          </mxGeometry>
        </mxCell>
        <mxCell id="E6Ye3oewYgmc-_yJtXfk-109" value="Extends" style="edgeLabel;html=1;align=center;verticalAlign=middle;resizable=0;points=[];" parent="E6Ye3oewYgmc-_yJtXfk-108" vertex="1" connectable="0">
          <mxGeometry x="-0.1875" y="4" relative="1" as="geometry">
            <mxPoint as="offset" />
          </mxGeometry>
        </mxCell>
        <mxCell id="E6Ye3oewYgmc-_yJtXfk-110" value="Đăng tải tài liệu" style="ellipse;whiteSpace=wrap;html=1;" parent="1" vertex="1">
          <mxGeometry x="1120" y="370" width="100" height="50" as="geometry" />
        </mxCell>
        <mxCell id="E6Ye3oewYgmc-_yJtXfk-111" value="Xóa tài liệu" style="ellipse;whiteSpace=wrap;html=1;" parent="1" vertex="1">
          <mxGeometry x="1280" y="370" width="100" height="50" as="geometry" />
        </mxCell>
        <mxCell id="E6Ye3oewYgmc-_yJtXfk-112" value="" style="endArrow=block;dashed=1;endFill=0;endSize=12;html=1;rounded=0;exitX=0.57;exitY=1.08;exitDx=0;exitDy=0;entryX=0.35;entryY=0.062;entryDx=0;entryDy=0;exitPerimeter=0;entryPerimeter=0;" parent="1" source="E6Ye3oewYgmc-_yJtXfk-110" target="E6Ye3oewYgmc-_yJtXfk-70" edge="1">
          <mxGeometry width="160" relative="1" as="geometry">
            <mxPoint x="1163" y="268" as="sourcePoint" />
            <mxPoint x="1244" y="316" as="targetPoint" />
          </mxGeometry>
        </mxCell>
        <mxCell id="E6Ye3oewYgmc-_yJtXfk-113" value="Extends" style="edgeLabel;html=1;align=center;verticalAlign=middle;resizable=0;points=[];" parent="E6Ye3oewYgmc-_yJtXfk-112" vertex="1" connectable="0">
          <mxGeometry x="-0.1875" y="4" relative="1" as="geometry">
            <mxPoint as="offset" />
          </mxGeometry>
        </mxCell>
        <mxCell id="E6Ye3oewYgmc-_yJtXfk-114" value="" style="endArrow=block;dashed=1;endFill=0;endSize=12;html=1;rounded=0;exitX=0.37;exitY=1;exitDx=0;exitDy=0;entryX=0.792;entryY=0.015;entryDx=0;entryDy=0;exitPerimeter=0;entryPerimeter=0;" parent="1" source="E6Ye3oewYgmc-_yJtXfk-111" target="E6Ye3oewYgmc-_yJtXfk-70" edge="1">
          <mxGeometry width="160" relative="1" as="geometry">
            <mxPoint x="1187" y="434" as="sourcePoint" />
            <mxPoint x="1252" y="464" as="targetPoint" />
          </mxGeometry>
        </mxCell>
        <mxCell id="E6Ye3oewYgmc-_yJtXfk-115" value="Extends" style="edgeLabel;html=1;align=center;verticalAlign=middle;resizable=0;points=[];" parent="E6Ye3oewYgmc-_yJtXfk-114" vertex="1" connectable="0">
          <mxGeometry x="-0.1875" y="4" relative="1" as="geometry">
            <mxPoint as="offset" />
          </mxGeometry>
        </mxCell>
        <mxCell id="E6Ye3oewYgmc-_yJtXfk-116" value="Thêm sinh viên" style="ellipse;whiteSpace=wrap;html=1;" parent="1" vertex="1">
          <mxGeometry x="1020" y="677.5" width="90" height="50" as="geometry" />
        </mxCell>
        <mxCell id="E6Ye3oewYgmc-_yJtXfk-117" value="Xem danh sách sinh viên" style="ellipse;whiteSpace=wrap;html=1;" parent="1" vertex="1">
          <mxGeometry x="1070" y="550" width="90" height="50" as="geometry" />
        </mxCell>
        <mxCell id="E6Ye3oewYgmc-_yJtXfk-118" value="Sửa sinh viên" style="ellipse;whiteSpace=wrap;html=1;" parent="1" vertex="1">
          <mxGeometry x="1310" y="510" width="90" height="50" as="geometry" />
        </mxCell>
        <mxCell id="E6Ye3oewYgmc-_yJtXfk-119" value="Xóa sinh viên" style="ellipse;whiteSpace=wrap;html=1;" parent="1" vertex="1">
          <mxGeometry x="1400" y="690" width="90" height="50" as="geometry" />
        </mxCell>
        <mxCell id="E6Ye3oewYgmc-_yJtXfk-120" value="" style="endArrow=block;dashed=1;endFill=0;endSize=12;html=1;rounded=0;exitX=1;exitY=0.5;exitDx=0;exitDy=0;entryX=0.083;entryY=0.115;entryDx=0;entryDy=0;entryPerimeter=0;" parent="1" source="E6Ye3oewYgmc-_yJtXfk-117" target="E6Ye3oewYgmc-_yJtXfk-71" edge="1">
          <mxGeometry width="160" relative="1" as="geometry">
            <mxPoint x="1187" y="434" as="sourcePoint" />
            <mxPoint x="1252" y="464" as="targetPoint" />
          </mxGeometry>
        </mxCell>
        <mxCell id="E6Ye3oewYgmc-_yJtXfk-121" value="Extends" style="edgeLabel;html=1;align=center;verticalAlign=middle;resizable=0;points=[];" parent="E6Ye3oewYgmc-_yJtXfk-120" vertex="1" connectable="0">
          <mxGeometry x="-0.1875" y="4" relative="1" as="geometry">
            <mxPoint as="offset" />
          </mxGeometry>
        </mxCell>
        <mxCell id="E6Ye3oewYgmc-_yJtXfk-122" value="" style="endArrow=block;dashed=1;endFill=0;endSize=12;html=1;rounded=0;exitX=1;exitY=0.5;exitDx=0;exitDy=0;entryX=0;entryY=1;entryDx=0;entryDy=0;" parent="1" source="E6Ye3oewYgmc-_yJtXfk-116" target="E6Ye3oewYgmc-_yJtXfk-71" edge="1">
          <mxGeometry width="160" relative="1" as="geometry">
            <mxPoint x="1170" y="585" as="sourcePoint" />
            <mxPoint x="1220" y="630" as="targetPoint" />
          </mxGeometry>
        </mxCell>
        <mxCell id="E6Ye3oewYgmc-_yJtXfk-123" value="Extends" style="edgeLabel;html=1;align=center;verticalAlign=middle;resizable=0;points=[];" parent="E6Ye3oewYgmc-_yJtXfk-122" vertex="1" connectable="0">
          <mxGeometry x="-0.1875" y="4" relative="1" as="geometry">
            <mxPoint as="offset" />
          </mxGeometry>
        </mxCell>
        <mxCell id="E6Ye3oewYgmc-_yJtXfk-124" value="" style="endArrow=block;dashed=1;endFill=0;endSize=12;html=1;rounded=0;entryX=0.75;entryY=0.038;entryDx=0;entryDy=0;entryPerimeter=0;" parent="1" source="E6Ye3oewYgmc-_yJtXfk-118" target="E6Ye3oewYgmc-_yJtXfk-71" edge="1">
          <mxGeometry width="160" relative="1" as="geometry">
            <mxPoint x="1120" y="713" as="sourcePoint" />
            <mxPoint x="1227" y="678" as="targetPoint" />
          </mxGeometry>
        </mxCell>
        <mxCell id="E6Ye3oewYgmc-_yJtXfk-125" value="Extends" style="edgeLabel;html=1;align=center;verticalAlign=middle;resizable=0;points=[];" parent="E6Ye3oewYgmc-_yJtXfk-124" vertex="1" connectable="0">
          <mxGeometry x="-0.1875" y="4" relative="1" as="geometry">
            <mxPoint as="offset" />
          </mxGeometry>
        </mxCell>
        <mxCell id="E6Ye3oewYgmc-_yJtXfk-126" value="" style="endArrow=block;dashed=1;endFill=0;endSize=12;html=1;rounded=0;entryX=0.958;entryY=0.731;entryDx=0;entryDy=0;entryPerimeter=0;" parent="1" source="E6Ye3oewYgmc-_yJtXfk-119" target="E6Ye3oewYgmc-_yJtXfk-71" edge="1">
          <mxGeometry width="160" relative="1" as="geometry">
            <mxPoint x="1346" y="568" as="sourcePoint" />
            <mxPoint x="1300" y="625" as="targetPoint" />
          </mxGeometry>
        </mxCell>
        <mxCell id="E6Ye3oewYgmc-_yJtXfk-127" value="Extends" style="edgeLabel;html=1;align=center;verticalAlign=middle;resizable=0;points=[];" parent="E6Ye3oewYgmc-_yJtXfk-126" vertex="1" connectable="0">
          <mxGeometry x="-0.1875" y="4" relative="1" as="geometry">
            <mxPoint as="offset" />
          </mxGeometry>
        </mxCell>
        <mxCell id="E6Ye3oewYgmc-_yJtXfk-128" value="Thêm thông tin thi cử" style="ellipse;whiteSpace=wrap;html=1;" parent="1" vertex="1">
          <mxGeometry x="1090" y="850" width="90" height="50" as="geometry" />
        </mxCell>
        <mxCell id="E6Ye3oewYgmc-_yJtXfk-129" value="" style="endArrow=block;dashed=1;endFill=0;endSize=12;html=1;rounded=0;" parent="1" source="E6Ye3oewYgmc-_yJtXfk-128" target="E6Ye3oewYgmc-_yJtXfk-77" edge="1">
          <mxGeometry width="160" relative="1" as="geometry">
            <mxPoint x="1120" y="713" as="sourcePoint" />
            <mxPoint x="1227" y="678" as="targetPoint" />
          </mxGeometry>
        </mxCell>
        <mxCell id="E6Ye3oewYgmc-_yJtXfk-130" value="Extends" style="edgeLabel;html=1;align=center;verticalAlign=middle;resizable=0;points=[];" parent="E6Ye3oewYgmc-_yJtXfk-129" vertex="1" connectable="0">
          <mxGeometry x="-0.1875" y="4" relative="1" as="geometry">
            <mxPoint as="offset" />
          </mxGeometry>
        </mxCell>
        <mxCell id="E6Ye3oewYgmc-_yJtXfk-131" value="Xem thắc mắc của sinh viên" style="ellipse;whiteSpace=wrap;html=1;" parent="1" vertex="1">
          <mxGeometry x="1340" y="1050" width="100" height="60" as="geometry" />
        </mxCell>
        <mxCell id="E6Ye3oewYgmc-_yJtXfk-133" value="" style="endArrow=block;dashed=1;endFill=0;endSize=12;html=1;rounded=0;entryX=0.583;entryY=1;entryDx=0;entryDy=0;exitX=0.5;exitY=0;exitDx=0;exitDy=0;entryPerimeter=0;" parent="1" source="E6Ye3oewYgmc-_yJtXfk-131" target="E6Ye3oewYgmc-_yJtXfk-72" edge="1">
          <mxGeometry width="160" relative="1" as="geometry">
            <mxPoint x="1315" y="850" as="sourcePoint" />
            <mxPoint x="1375" y="910" as="targetPoint" />
          </mxGeometry>
        </mxCell>
        <mxCell id="E6Ye3oewYgmc-_yJtXfk-134" value="Extends" style="edgeLabel;html=1;align=center;verticalAlign=middle;resizable=0;points=[];" parent="E6Ye3oewYgmc-_yJtXfk-133" vertex="1" connectable="0">
          <mxGeometry x="-0.1875" y="4" relative="1" as="geometry">
            <mxPoint as="offset" />
          </mxGeometry>
        </mxCell>
        <mxCell id="qlSrt7wHBAgnkEekmUD2-1" value="Include" style="endArrow=open;endSize=12;dashed=1;html=1;rounded=0;exitX=0.5;exitY=1;exitDx=0;exitDy=0;entryX=0.756;entryY=0.06;entryDx=0;entryDy=0;entryPerimeter=0;" parent="1" source="E6Ye3oewYgmc-_yJtXfk-63" target="E6Ye3oewYgmc-_yJtXfk-3" edge="1">
          <mxGeometry width="160" relative="1" as="geometry">
            <mxPoint x="780" y="210" as="sourcePoint" />
            <mxPoint x="940" y="210" as="targetPoint" />
          </mxGeometry>
        </mxCell>
        <mxCell id="5Ln3r7jomFiAx2Pc988M-1" value="Xem tài liệu" style="ellipse;whiteSpace=wrap;html=1;" parent="1" vertex="1">
          <mxGeometry x="980" y="420" width="100" height="50" as="geometry" />
        </mxCell>
        <mxCell id="5Ln3r7jomFiAx2Pc988M-2" value="" style="endArrow=block;dashed=1;endFill=0;endSize=12;html=1;rounded=0;exitX=1;exitY=0.5;exitDx=0;exitDy=0;" parent="1" source="5Ln3r7jomFiAx2Pc988M-1" target="E6Ye3oewYgmc-_yJtXfk-70" edge="1">
          <mxGeometry width="160" relative="1" as="geometry">
            <mxPoint x="1187" y="434" as="sourcePoint" />
            <mxPoint x="1252" y="464" as="targetPoint" />
          </mxGeometry>
        </mxCell>
        <mxCell id="5Ln3r7jomFiAx2Pc988M-3" value="Extends" style="edgeLabel;html=1;align=center;verticalAlign=middle;resizable=0;points=[];" parent="5Ln3r7jomFiAx2Pc988M-2" vertex="1" connectable="0">
          <mxGeometry x="-0.1875" y="4" relative="1" as="geometry">
            <mxPoint as="offset" />
          </mxGeometry>
        </mxCell>
        <mxCell id="p2IlvXQG-CmWqFulfANA-1" value="Cập nhật thông tin thi cử" style="ellipse;whiteSpace=wrap;html=1;" vertex="1" parent="1">
          <mxGeometry x="1400" y="870" width="90" height="50" as="geometry" />
        </mxCell>
        <mxCell id="p2IlvXQG-CmWqFulfANA-2" value="" style="endArrow=block;dashed=1;endFill=0;endSize=12;html=1;rounded=0;entryX=1;entryY=0.5;entryDx=0;entryDy=0;" edge="1" parent="1" source="p2IlvXQG-CmWqFulfANA-1" target="E6Ye3oewYgmc-_yJtXfk-77">
          <mxGeometry width="160" relative="1" as="geometry">
            <mxPoint x="1419" y="710" as="sourcePoint" />
            <mxPoint x="1325" y="670" as="targetPoint" />
          </mxGeometry>
        </mxCell>
        <mxCell id="p2IlvXQG-CmWqFulfANA-3" value="Extends" style="edgeLabel;html=1;align=center;verticalAlign=middle;resizable=0;points=[];" vertex="1" connectable="0" parent="p2IlvXQG-CmWqFulfANA-2">
          <mxGeometry x="-0.1875" y="4" relative="1" as="geometry">
            <mxPoint as="offset" />
          </mxGeometry>
        </mxCell>
        <mxCell id="p2IlvXQG-CmWqFulfANA-4" value="Xóa thắc mắc của sinh viên" style="ellipse;whiteSpace=wrap;html=1;" vertex="1" parent="1">
          <mxGeometry x="1140" y="1040" width="110" height="60" as="geometry" />
        </mxCell>
        <mxCell id="p2IlvXQG-CmWqFulfANA-5" value="" style="endArrow=block;dashed=1;endFill=0;endSize=12;html=1;rounded=0;exitX=0.5;exitY=0;exitDx=0;exitDy=0;" edge="1" parent="1" source="p2IlvXQG-CmWqFulfANA-4" target="E6Ye3oewYgmc-_yJtXfk-72">
          <mxGeometry width="160" relative="1" as="geometry">
            <mxPoint x="1400" y="1060" as="sourcePoint" />
            <mxPoint x="1290" y="995" as="targetPoint" />
          </mxGeometry>
        </mxCell>
        <mxCell id="p2IlvXQG-CmWqFulfANA-6" value="Extends" style="edgeLabel;html=1;align=center;verticalAlign=middle;resizable=0;points=[];" vertex="1" connectable="0" parent="p2IlvXQG-CmWqFulfANA-5">
          <mxGeometry x="-0.1875" y="4" relative="1" as="geometry">
            <mxPoint as="offset" />
          </mxGeometry>
        </mxCell>
      </root>
    </mxGraphModel>
  </diagram>
</mxfile>
